<?xml version="1.0" encoding="utf-8"?>
<!-- Generator: Adobe Illustrator 26.3.1, SVG Export Plug-In . SVG Version: 6.00 Build 0)  -->
<svg version="1.1" id="_x30_" xmlns="http://www.w3.org/2000/svg" xmlns:xlink="http://www.w3.org/1999/xlink" x="0px" y="0px"
	 viewBox="0 0 1920 1080" style="enable-background:new 0 0 1920 1080;" xml:space="preserve">
<style type="text/css">
	.st0{fill:none;stroke:#000000;stroke-width:0.7087;stroke-linecap:round;stroke-linejoin:round;stroke-miterlimit:10;}
</style>
<g id="CIRCLE">
	<circle class="st0" cx="960.5" cy="522.68" r="6"/>
</g>
<g id="CIRCLE_00000143575782015401354060000013958905633567607228_">
	<circle class="st0" cx="940.5" cy="557.32" r="6"/>
</g>
<g id="CIRCLE_00000156582701511653362450000010532587748846872209_">
	<circle class="st0" cx="980.5" cy="557.32" r="6"/>
</g>
<g id="CIRCLE_00000016787283659296558250000007816880001774843800_">
	<circle class="st0" cx="960.5" cy="545.77" r="6.15"/>
</g>
<g id="ARC">
	<path class="st0" d="M934.4,537.75c-10.81,3.37-16.84,14.87-13.47,25.67c3.37,10.81,14.87,16.84,25.67,13.47
		c2.9-0.9,5.56-2.44,7.79-4.5"/>
</g>
<g id="ARC_00000011719490882856113460000018370549274477254316_">
	<path class="st0" d="M966.6,572.39c-3.45-3.18-8.75-3.18-12.2,0"/>
</g>
<g id="ARC_00000137098353969490049160000007532287942056437891_">
	<path class="st0" d="M934.4,537.75c4.48-1.4,7.13-5.99,6.1-10.57"/>
</g>
<g id="ARC_00000017508479395662831150000006990635072363670973_">
	<path class="st0" d="M966.6,572.39c8.32,7.67,21.29,7.15,28.97-1.18s7.15-21.29-1.18-28.97c-2.23-2.06-4.89-3.59-7.79-4.5"/>
</g>
<g id="ARC_00000152231912042073286390000012504810834953486725_">
	<path class="st0" d="M980.5,527.18c-1.03,4.57,1.63,9.17,6.1,10.57"/>
</g>
<g id="ARC_00000173123825587032493460000007393366425485729982_">
	<path class="st0" d="M980.5,527.18c2.48-11.05-4.46-22.01-15.5-24.5c-11.05-2.48-22.01,4.46-24.5,15.5c-0.67,2.96-0.67,6.03,0,9"/>
</g>
<g id="CIRCLE_00000097458172568853599430000010053808252472733357_">
	<circle class="st0" cx="945.01" cy="536.83" r="1.5"/>
</g>
<g id="CIRCLE_00000134953918162699178890000001669586539747423126_">
	<circle class="st0" cx="960.5" cy="563.66" r="1.5"/>
</g>
<g id="CIRCLE_00000057835000005746847030000008083932814273486502_">
	<circle class="st0" cx="975.99" cy="536.83" r="1.5"/>
</g>
<g id="CIRCLE_00000110442121233467749390000012381729156052179844_">
	<circle class="st0" cx="960.5" cy="512.71" r="1"/>
</g>
<g id="CIRCLE_00000078736315899129531510000008615276263069638591_">
	<circle class="st0" cx="931.87" cy="562.3" r="1"/>
</g>
<g id="CIRCLE_00000005235538842467264970000016684992904999789750_">
	<circle class="st0" cx="989.13" cy="562.3" r="1"/>
</g>
</svg>
